<svg width="70" height="48" viewBox="0 0 70 48" fill="none" xmlns="http://www.w3.org/2000/svg">
<rect x="0.5" y="0.5" width="69" height="47" rx="5.5" fill="white" stroke="#D9D9D9"/>
<path d="M29.5 47L69 35.5V42C69 44.7614 66.7614 47 64 47H29.5Z" fill="#FD6020"/>
<path fill-rule="evenodd" clip-rule="evenodd" d="M61.5019 19.2217C63.6751 19.2217 64.8703 20.1888 64.8703 22.0155C64.9789 23.4124 64.001 24.5944 62.6972 24.8093L65.6309 28.7851H63.3491L60.85 24.9168H60.6327V28.7851H58.7856V19.2217H61.5019ZM60.6327 23.6273H61.176C62.3712 23.6273 62.9145 23.09 62.9145 22.1229C62.9145 21.2633 62.3712 20.726 61.176 20.726H60.6327V23.6273ZM52.3749 28.7851H57.5903V27.1733H54.222V24.5944H57.4817V22.9826H54.222V20.8335H57.5903V19.2217H52.3749V28.7851ZM46.9421 25.6689L44.443 19.2217H42.4872L46.5075 29H47.4854L51.5056 19.2217H49.5498L46.9421 25.6689ZM24.885 24.0571C24.885 26.7435 27.0581 29 29.7745 29C30.6437 29 31.4043 28.7851 32.1649 28.4627V26.3137C31.6217 26.9584 30.8611 27.3882 29.9918 27.3882C28.2533 27.3882 26.8408 26.0987 26.8408 24.3795V24.1646C26.7321 22.4453 28.1447 20.941 29.8832 20.8335C30.7524 20.8335 31.6217 21.2633 32.1649 21.908V19.759C31.513 19.3291 30.6437 19.2217 29.8832 19.2217C27.0581 19.0068 24.885 21.2633 24.885 24.0571ZM21.5167 22.8751C20.4301 22.4453 20.1042 22.2304 20.1042 21.6931C20.2128 21.0484 20.7561 20.5111 21.408 20.6186C21.9513 20.6186 22.4946 20.941 22.9292 21.3708L23.9071 20.0813C23.1465 19.4366 22.1686 19.0068 21.1907 19.0068C19.6695 18.8993 18.3657 20.0813 18.257 21.5857V21.6931C18.257 22.9826 18.8003 23.7348 20.5388 24.272C20.9734 24.3795 21.408 24.5944 21.8426 24.8093C22.1686 25.0242 22.3859 25.3466 22.3859 25.7764C22.3859 26.5286 21.734 27.1733 21.0821 27.1733H20.9734C20.1042 27.1733 19.3436 26.636 19.0176 25.8838L17.8224 27.0658C18.4743 28.2478 19.7782 28.8925 21.0821 28.8925C22.8205 29 24.2331 27.7106 24.3417 25.9913V25.6689C24.2331 24.3795 23.6898 23.7348 21.5167 22.8751ZM15.2147 28.7851H17.0618V19.2217H15.2147V28.7851ZM6.63086 19.2217H9.34725H9.89053C12.4983 19.3292 14.5627 21.4782 14.4541 24.0571C14.4541 25.454 13.8021 26.7435 12.7156 27.7106C11.7377 28.4627 10.5425 28.8926 9.34725 28.7851H6.63086V19.2217ZM9.02128 27.1733C9.89052 27.2807 10.8684 26.9584 11.5204 26.4211C12.1723 25.7764 12.4983 24.9168 12.4983 23.9497C12.4983 23.09 12.1723 22.2304 11.5204 21.5857C10.8684 21.0484 9.89052 20.7261 9.02128 20.8335H8.478V27.1733H9.02128Z" fill="black"/>
<path fill-rule="evenodd" clip-rule="evenodd" d="M37.7071 19C34.9908 19 32.709 21.1491 32.709 23.9429C32.709 26.6292 34.8821 28.8858 37.7071 28.9932C40.5322 29.1007 42.7053 26.8441 42.814 24.0503C42.7053 21.2565 40.5322 19 37.7071 19V19Z" fill="#FD6020"/>
</svg>
