<svg width="14" height="17" viewBox="0 0 14 17" fill="none" xmlns="http://www.w3.org/2000/svg">
<path fill-rule="evenodd" clip-rule="evenodd" d="M0 0.128662H13.8614V5.7485C13.8614 5.7485 13.4141 3.33464 11.9554 2.26954C10.0729 0.895067 9.91796 1.83569 0.23495 0.409654C0.114218 0.391811 0.123782 0.147208 0 0.128662Z" fill="white"/>
<path fill-rule="evenodd" clip-rule="evenodd" d="M0.0629155 0.128662C0.0629155 0.128662 -0.0794409 2.3766 0.205411 4.06255C0.490401 5.7485 1.21868 7.74438 6.75006 10.6659C6.75006 10.6659 13.2117 12.8827 13.6808 16.8477C13.6878 16.9071 13.8798 16.9279 13.884 16.9882C13.884 16.9882 14.0265 13.1948 12.744 11.6493C11.0342 9.68238 9.04745 8.18231 7.02729 7.15346C5.1147 6.1617 2.2002 5.04602 1.33026 3.77748C0.550975 2.44361 0.481391 0.978662 0.373826 0.409654C0.345826 0.26115 0.0629155 0.128662 0.0629155 0.128662Z" fill="white"/>
<path fill-rule="evenodd" clip-rule="evenodd" d="M13.9317 16.9882H0.0703125V11.3684C0.0703125 11.3684 0.517481 13.7823 1.97625 14.8474C3.85863 16.2218 4.13724 15.2812 13.8201 16.7073C13.9408 16.7251 13.8078 16.9697 13.9317 16.9882Z" fill="white"/>
</svg>
