<svg width="40" height="40" viewBox="0 0 40 40" fill="none" xmlns="http://www.w3.org/2000/svg">
<path fill-rule="evenodd" clip-rule="evenodd" d="M11.8954 0H28.0346C34.5937 0 39.9299 5.33623 39.93 11.8954V28.0346C39.93 34.5938 34.5938 39.93 28.0346 39.93H11.8954C5.33623 39.93 0 34.5938 0 28.0346V11.8954C0 5.33623 5.33623 0 11.8954 0ZM28.0346 35.913C32.3857 35.913 35.913 32.3857 35.913 28.0346V11.8954C35.913 7.5442 32.3857 4.01696 28.0346 4.01696H11.8954C7.54427 4.01696 4.01696 7.5442 4.01696 11.8954V28.0346C4.01696 32.3857 7.54427 35.913 11.8954 35.913H28.0346Z" fill="url(#paint0_linear)"/>
<path fill-rule="evenodd" clip-rule="evenodd" d="M9.6377 19.9649C9.6377 14.2705 14.2705 9.6377 19.965 9.6377C25.6595 9.6377 30.2923 14.2704 30.2923 19.9649C30.2923 25.6594 25.6595 30.2923 19.965 30.2923C14.2705 30.2923 9.6377 25.6594 9.6377 19.9649ZM13.6547 19.965C13.6547 23.4502 16.4799 26.2754 19.965 26.2754C23.4501 26.2754 26.2754 23.4501 26.2754 19.965C26.2754 16.4799 23.4502 13.6547 19.965 13.6547C16.4799 13.6547 13.6547 16.4799 13.6547 19.965Z" fill="url(#paint1_linear)"/>
<circle cx="30.3125" cy="9.71512" r="2.47464" fill="url(#paint2_linear)"/>
<defs>
<linearGradient id="paint0_linear" x1="39.7168" y1="39.8138" x2="39.7168" y2="0.310143" gradientUnits="userSpaceOnUse">
<stop stop-color="#E09B3D"/>
<stop offset="0.3" stop-color="#C74C4D"/>
<stop offset="0.6" stop-color="#C21975"/>
<stop offset="1" stop-color="#7024C4"/>
</linearGradient>
<linearGradient id="paint1_linear" x1="39.7169" y1="39.8138" x2="39.7169" y2="0.310159" gradientUnits="userSpaceOnUse">
<stop stop-color="#E09B3D"/>
<stop offset="0.3" stop-color="#C74C4D"/>
<stop offset="0.6" stop-color="#C21975"/>
<stop offset="1" stop-color="#7024C4"/>
</linearGradient>
<linearGradient id="paint2_linear" x1="50.0643" y1="39.8137" x2="50.0643" y2="0.310045" gradientUnits="userSpaceOnUse">
<stop stop-color="#E09B3D"/>
<stop offset="0.3" stop-color="#C74C4D"/>
<stop offset="0.6" stop-color="#C21975"/>
<stop offset="1" stop-color="#7024C4"/>
</linearGradient>
</defs>
</svg>
