<svg width="160" height="700" viewBox="0 0 160 700" fill="none" xmlns="http://www.w3.org/2000/svg">
<path fill-rule="evenodd" clip-rule="evenodd" d="M160 160.254H152.381C152.381 79.5861 0 68.9319 0 -30H7.61905C7.61905 38.4913 160 18.7049 160 160.254Z" fill="black"/>
<path fill-rule="evenodd" clip-rule="evenodd" d="M160 159.746H152.381C152.381 240.414 0 251.068 0 350H7.61905C7.61905 281.509 160 301.295 160 159.746Z" fill="black"/>
<path fill-rule="evenodd" clip-rule="evenodd" d="M160 540.254H152.381C152.381 459.586 0 448.932 0 350H7.61905C7.61905 418.491 160 398.705 160 540.254Z" fill="black"/>
<path fill-rule="evenodd" clip-rule="evenodd" d="M160 539.746H152.381C152.381 620.414 0 631.068 0 730H7.61905C7.61905 661.509 160 681.295 160 539.746Z" fill="black"/>
</svg>
