<svg width="78" height="477" viewBox="0 0 78 477" fill="none" xmlns="http://www.w3.org/2000/svg">
<path fill-rule="evenodd" clip-rule="evenodd" d="M78 -25H74.2857C74.2857 14.432 0 19.64 0 68H3.71429C3.71429 34.52 78 44.192 78 -25Z" fill="black"/>
<path fill-rule="evenodd" clip-rule="evenodd" d="M78 161H74.2857C74.2857 200.432 0 205.64 0 254H3.71429C3.71429 220.52 78 230.192 78 161Z" fill="black"/>
<path fill-rule="evenodd" clip-rule="evenodd" d="M78 161H74.2857C74.2857 121.568 0 116.36 0 68H3.71429C3.71429 101.48 78 91.808 78 161Z" fill="black"/>
<path fill-rule="evenodd" clip-rule="evenodd" d="M78 347H74.2857C74.2857 386.432 0 391.64 0 440H3.71429C3.71429 406.52 78 416.192 78 347Z" fill="black"/>
<path fill-rule="evenodd" clip-rule="evenodd" d="M78 347H74.2857C74.2857 307.568 0 302.36 0 254H3.71429C3.71429 287.48 78 277.808 78 347Z" fill="black"/>
<path fill-rule="evenodd" clip-rule="evenodd" d="M78 533H74.2857C74.2857 493.568 0 488.36 0 440H3.71429C3.71429 473.48 78 463.808 78 533Z" fill="black"/>
</svg>
