<svg width="85" height="28" viewBox="0 0 85 28" fill="none" xmlns="http://www.w3.org/2000/svg">
<path fill-rule="evenodd" clip-rule="evenodd" d="M20.3954 27.1005H17.6719V10.2888H20.4962L20.4626 13.5166C25.1363 7.96876 33.8784 8.87659 33.9456 15.5004V27.1005H31.2221V16.1056C31.2221 9.98616 24.8673 9.07833 20.4626 13.9873L20.3954 27.1005Z" fill="white"/>
<path fill-rule="evenodd" clip-rule="evenodd" d="M50.3882 16.6772L50.4218 15.6685C50.4218 15.5676 49.8502 16.7108 44.067 17.9885C43.4617 18.1566 37.2078 19.0308 39.3597 23.1665C42.3858 28.9161 50.2537 20.9474 50.3882 16.6772ZM53.078 16.6436C53.078 17.854 53.078 19.5688 53.1117 21.519V21.9897C53.1117 25.2175 53.8514 26.8315 55.1291 27.1005C51.7667 27.1005 50.4554 26.7978 50.3209 24.1416V21.519L50.3882 19.3671C50.3209 19.4679 46.8241 27.3694 41.3435 27.3694C35.0223 27.3694 33.9463 19.6024 43.5626 17.6187C43.5626 17.6187 50.3882 16.1392 50.4218 14.8615C50.5227 10.7595 47.3621 10.4232 42.4867 12.0708L37.5104 13.9201L40.2675 10.5241C45.3783 8.40584 53.078 11.7682 53.078 16.6436Z" fill="white"/>
<path fill-rule="evenodd" clip-rule="evenodd" d="M59.869 27.1003H56.8429L56.9774 25.0829V10.2886H59.7345V25.0829L59.869 27.1003ZM58.4232 3.53027C59.3983 3.53027 60.2053 4.33724 60.2053 5.31231C60.2053 6.28739 59.3983 7.06073 58.4232 7.06073C57.4481 7.06073 56.6748 6.28739 56.6748 5.31231C56.6748 4.33724 57.4481 3.53027 58.4232 3.53027Z" fill="white"/>
<path fill-rule="evenodd" clip-rule="evenodd" d="M66.4261 21.9897C66.4933 25.2176 67.1658 26.8315 68.4435 27.1005C65.0811 27.1005 63.8034 26.7979 63.6689 24.1416V2.45451L66.4261 0C66.2579 7.32991 66.2579 14.6598 66.4261 21.9897Z" fill="white"/>
<path fill-rule="evenodd" clip-rule="evenodd" d="M5.11076 10.7588C13.9873 10.7588 14.5253 15.6678 14.5253 15.6678V10.2881H5.11076H0.537975H0V10.7588H0.0151978C0.496551 18.8756 13.3739 20.0517 13.9641 26.6291H9.41456C0.537974 26.6291 0 21.72 0 21.72V27.0998H9.41456H13.9873H14.5253V26.6291H14.5172C14.1888 14.5802 1.2746 16.1645 0.56985 10.7588H5.11076Z" fill="white"/>
<path fill-rule="evenodd" clip-rule="evenodd" d="M84.9847 10.7588H84.9999V10.2881H84.462H79.8892H70.4746V15.6678C70.4746 15.6678 71.0126 10.7588 79.8892 10.7588H84.4301C83.7255 16.1645 70.8111 14.5802 70.4827 26.6291H70.4746V27.0998H71.0126H75.5854H84.9999V21.72C84.9999 21.72 84.462 26.6291 75.5854 26.6291H71.036C71.626 20.0517 84.5034 18.8756 84.9847 10.7588Z" fill="white"/>
</svg>
